<?xml version="1.0" encoding="UTF-8" standalone="no"?>
<!DOCTYPE svg PUBLIC "-//W3C//DTD SVG 1.1//EN"
 "http://www.w3.org/Graphics/SVG/1.1/DTD/svg11.dtd">
<!-- Generated by graphviz version 2.40.1 (20161225.0304)
 -->
<!-- Title: G Pages: 1 -->
<svg width="820pt" height="252pt"
 viewBox="0.00 0.00 819.74 251.84" xmlns="http://www.w3.org/2000/svg" xmlns:xlink="http://www.w3.org/1999/xlink">
<g id="graph0" class="graph" transform="scale(1 1) rotate(0) translate(4 247.8438)">
<title>G</title>
<polygon fill="#ffffff" stroke="transparent" points="-4,4 -4,-247.8438 815.7382,-247.8438 815.7382,4 -4,4"/>
<!-- PEND -->
<g id="node1" class="node">
<title>PEND</title>
<ellipse fill="none" stroke="#000000" cx="398.1337" cy="-225.8438" rx="33.4012" ry="18"/>
<text text-anchor="middle" x="398.1337" y="-221.6438" font-family="Times,serif" font-size="14.00" fill="#000000">PEND</text>
</g>
<!-- SAY -->
<g id="node2" class="node">
<title>SAY</title>
<ellipse fill="none" stroke="#000000" cx="399.1337" cy="-125.8438" rx="27" ry="18"/>
<text text-anchor="middle" x="399.1337" y="-121.6438" font-family="Times,serif" font-size="14.00" fill="#000000">SAY</text>
</g>
<!-- PEND&#45;&gt;SAY -->
<g id="edge1" class="edge">
<title>PEND&#45;&gt;SAY</title>
<path fill="none" stroke="#000000" d="M377.8877,-211.1659C371.4824,-205.3299 365.1844,-198.0431 361.7635,-189.8438 356.9719,-178.3588 356.8941,-173.296 361.7635,-161.8438 364.2024,-156.1079 368.0526,-150.8429 372.3731,-146.2132"/>
<polygon fill="#000000" stroke="#000000" points="375.0769,-148.4726 379.9221,-139.0506 370.2588,-143.3946 375.0769,-148.4726"/>
<text text-anchor="middle" x="388.3187" y="-171.6438" font-family="Times,serif" font-size="14.00" fill="#000000"> &#160;GOAL &#160;</text>
</g>
<!-- SAY&#45;&gt;PEND -->
<g id="edge3" class="edge">
<title>SAY&#45;&gt;PEND</title>
<path fill="none" stroke="#000000" d="M407.8937,-142.9839C410.4308,-148.814 412.8589,-155.47 414.1337,-161.8438 416.5742,-174.0465 416.717,-177.6704 414.1337,-189.8438 413.4872,-192.89 412.5646,-195.9915 411.4844,-199.0321"/>
<polygon fill="#000000" stroke="#000000" points="408.2004,-197.8158 407.6428,-208.3959 414.6766,-200.4728 408.2004,-197.8158"/>
<text text-anchor="middle" x="484.1683" y="-178.6438" font-family="Times,serif" font-size="14.00" fill="#000000"> &#160;SAY_DONE &amp;&amp; &#160;</text>
<text text-anchor="middle" x="484.1683" y="-164.6438" font-family="Times,serif" font-size="14.00" fill="#000000"> &#160;!isQuestion(sentence) &#160;</text>
</g>
<!-- LISTEN -->
<g id="node3" class="node">
<title>LISTEN</title>
<ellipse fill="none" stroke="#000000" cx="183.1337" cy="-25.8438" rx="40.6248" ry="18"/>
<text text-anchor="middle" x="183.1337" y="-21.6438" font-family="Times,serif" font-size="14.00" fill="#000000">LISTEN</text>
</g>
<!-- SAY&#45;&gt;LISTEN -->
<g id="edge2" class="edge">
<title>SAY&#45;&gt;LISTEN</title>
<path fill="none" stroke="#000000" d="M374.2651,-118.7691C357.2598,-113.0175 334.9486,-103.585 318.7264,-89.8438 307.328,-80.1885 312.1016,-70.7834 300.1337,-61.8438 280.4221,-47.1198 254.6113,-38.3506 232.2489,-33.1616"/>
<polygon fill="#000000" stroke="#000000" points="232.7624,-29.6923 222.2512,-31.0209 231.2967,-36.5372 232.7624,-29.6923"/>
<text text-anchor="middle" x="384.8373" y="-78.6438" font-family="Times,serif" font-size="14.00" fill="#000000"> &#160;SAY_DONE &amp;&amp; &#160;</text>
<text text-anchor="middle" x="384.8373" y="-64.6438" font-family="Times,serif" font-size="14.00" fill="#000000"> &#160;isQuestion(sentence) &#160;</text>
</g>
<!-- WAIT -->
<g id="node4" class="node">
<title>WAIT</title>
<ellipse fill="none" stroke="#000000" cx="609.1337" cy="-25.8438" rx="32.415" ry="18"/>
<text text-anchor="middle" x="609.1337" y="-21.6438" font-family="Times,serif" font-size="14.00" fill="#000000">WAIT</text>
</g>
<!-- SAY&#45;&gt;WAIT -->
<g id="edge4" class="edge">
<title>SAY&#45;&gt;WAIT</title>
<path fill="none" stroke="#000000" d="M420.0226,-114.1935C430.7616,-107.7178 443.7399,-99.1075 454.1337,-89.8438 466.2232,-79.0685 463.8311,-70.605 477.451,-61.8438 504.5816,-44.3915 540.0875,-35.3207 567.3932,-30.6522"/>
<polygon fill="#000000" stroke="#000000" points="568.0898,-34.0857 577.4223,-29.0703 566.9991,-27.1712 568.0898,-34.0857"/>
<text text-anchor="middle" x="532.975" y="-71.6438" font-family="Times,serif" font-size="14.00" fill="#000000"> &#160;LOST_PERSON &#160;</text>
</g>
<!-- LISTEN&#45;&gt;PEND -->
<g id="edge8" class="edge">
<title>LISTEN&#45;&gt;PEND</title>
<path fill="none" stroke="#000000" d="M164.2645,-42.0202C158.9836,-47.691 153.9271,-54.4964 151.1337,-61.8438 146.7111,-73.4758 144.8024,-79.1302 151.1337,-89.8438 195.773,-165.3812 298.9857,-201.8121 356.8688,-216.8682"/>
<polygon fill="#000000" stroke="#000000" points="356.2313,-220.3166 366.7822,-219.3528 357.9332,-213.5266 356.2313,-220.3166"/>
<text text-anchor="middle" x="244.9359" y="-121.6438" font-family="Times,serif" font-size="14.00" fill="#000000"> &#160;TIMED_OUT &#160;</text>
</g>
<!-- LISTEN&#45;&gt;SAY -->
<g id="edge5" class="edge">
<title>LISTEN:nw&#45;&gt;SAY</title>
<path fill="none" stroke="#000000" d="M166.1337,-42.8438C151.3419,-57.6356 149.9905,-73.9737 163.619,-89.8438 170.0326,-97.3122 297.1847,-113.5853 361.9287,-121.4348"/>
<polygon fill="#000000" stroke="#000000" points="361.7827,-124.9425 372.1297,-122.6645 362.6205,-117.9928 361.7827,-124.9425"/>
<text text-anchor="middle" x="230.391" y="-71.6438" font-family="Times,serif" font-size="14.00" fill="#000000"> &#160;VALID_RESPONSE &#160;</text>
</g>
<!-- LISTEN&#45;&gt;LISTEN -->
<g id="edge6" class="edge">
<title>LISTEN&#45;&gt;LISTEN</title>
<path fill="none" stroke="#000000" d="M218.0041,-35.1982C230.9991,-35.5049 241.696,-32.3867 241.696,-25.8438 241.696,-21.141 236.17,-18.2075 228.2365,-17.0433"/>
<polygon fill="#000000" stroke="#000000" points="228.1787,-13.5351 218.0041,-16.4893 227.8003,-20.5249 228.1787,-13.5351"/>
<text text-anchor="middle" x="315.4626" y="-21.6438" font-family="Times,serif" font-size="14.00" fill="#000000"> &#160;INVALID_RESPONSE &#160;</text>
</g>
<!-- LISTEN&#45;&gt;LISTEN -->
<g id="edge7" class="edge">
<title>LISTEN:sw&#45;&gt;LISTEN</title>
<path fill="none" stroke="#000000" d="M166.1337,-8.8438C146.6129,3.6563 124.5713,3.6563 124.5713,-17.3438 124.5713,-24.8419 129.5487,-29.6628 136.8376,-32.1934"/>
<polygon fill="#000000" stroke="#000000" points="136.6198,-35.7171 147.1058,-34.203 137.9643,-28.8474 136.6198,-35.7171"/>
<text text-anchor="middle" x="62.2856" y="-21.6438" font-family="Times,serif" font-size="14.00" fill="#000000"> DETECTED_FACE &#160;</text>
</g>
<!-- WAIT&#45;&gt;PEND -->
<g id="edge10" class="edge">
<title>WAIT:ne&#45;&gt;PEND</title>
<path fill="none" stroke="#000000" d="M625.1337,-41.8438C636.7946,-53.5047 773.0646,-15.6549 730.1337,-89.8438 685.4597,-167.0447 639.2013,-157.355 556.1337,-189.8438 518.3061,-204.6386 472.8925,-214.1959 440.4806,-219.7177"/>
<polygon fill="#000000" stroke="#000000" points="439.7391,-216.2925 430.4402,-221.3702 440.8759,-223.1996 439.7391,-216.2925"/>
<text text-anchor="middle" x="764.9359" y="-121.6438" font-family="Times,serif" font-size="14.00" fill="#000000"> &#160;TIMED_OUT &#160;</text>
</g>
<!-- WAIT&#45;&gt;SAY -->
<g id="edge9" class="edge">
<title>WAIT&#45;&gt;SAY</title>
<path fill="none" stroke="#000000" d="M607.7477,-44.0279C605.6419,-58.5747 600.3589,-78.3735 587.1337,-89.8438 565.0311,-109.0132 484.3931,-118.8438 436.199,-123.1135"/>
<polygon fill="#000000" stroke="#000000" points="435.8189,-119.633 426.1502,-123.965 436.41,-126.608 435.8189,-119.633"/>
<text text-anchor="middle" x="664.5887" y="-71.6438" font-family="Times,serif" font-size="14.00" fill="#000000"> &#160;FOUND_PERSON &#160;</text>
</g>
</g>
</svg>
