<?xml version="1.0" encoding="UTF-8" standalone="no"?>
<!DOCTYPE svg PUBLIC "-//W3C//DTD SVG 1.1//EN"
 "http://www.w3.org/Graphics/SVG/1.1/DTD/svg11.dtd">
<!-- Generated by graphviz version 2.38.0 (20140413.2041)
 -->
<!-- Title: %3 Pages: 1 -->
<svg width="267pt" height="254pt"
 viewBox="0.00 0.00 266.95 254.00" xmlns="http://www.w3.org/2000/svg" xmlns:xlink="http://www.w3.org/1999/xlink">
<g id="graph0" class="graph" transform="scale(1 1) rotate(0) translate(4 250)">
<title>%3</title>
<polygon fill="white" stroke="none" points="-4,4 -4,-250 262.946,-250 262.946,4 -4,4"/>
<!-- PEND -->
<g id="node1" class="node"><title>PEND</title>
<ellipse fill="none" stroke="black" cx="73" cy="-228" rx="33.5952" ry="18"/>
<text text-anchor="middle" x="73" y="-224.3" font-family="Times,serif" font-size="14.00">PEND</text>
</g>
<!-- SAY -->
<g id="node2" class="node"><title>SAY</title>
<ellipse fill="none" stroke="black" cx="73" cy="-141" rx="28.6953" ry="18"/>
<text text-anchor="middle" x="73" y="-137.3" font-family="Times,serif" font-size="14.00">SAY</text>
</g>
<!-- PEND&#45;&gt;SAY -->
<g id="edge1" class="edge"><title>PEND&#45;&gt;SAY</title>
<path fill="none" stroke="black" d="M52.8131,-213.234C46.1652,-207.523 39.5668,-200.284 36,-192 31.2622,-180.997 37.579,-170.14 46.259,-161.37"/>
<polygon fill="black" stroke="black" points="48.7856,-163.806 53.9153,-154.536 44.1243,-158.584 48.7856,-163.806"/>
<text text-anchor="middle" x="62.5" y="-180.8" font-family="Times,serif" font-size="14.00"> &#160;GOAL &#160;</text>
</g>
<!-- SAY&#45;&gt;PEND -->
<g id="edge3" class="edge"><title>SAY&#45;&gt;PEND</title>
<path fill="none" stroke="black" d="M82.6445,-158C87.3554,-167.71 91.5208,-180.423 89,-192 88.339,-195.036 87.3903,-198.123 86.2801,-201.144"/>
<polygon fill="black" stroke="black" points="83.0287,-199.846 82.3384,-210.419 89.471,-202.584 83.0287,-199.846"/>
<text text-anchor="middle" x="135" y="-180.8" font-family="Times,serif" font-size="14.00"> &#160;QUIZ_DONE &#160;</text>
</g>
<!-- LISTEN -->
<g id="node3" class="node"><title>LISTEN</title>
<ellipse fill="none" stroke="black" cx="73" cy="-54" rx="40.8928" ry="18"/>
<text text-anchor="middle" x="73" y="-50.3" font-family="Times,serif" font-size="14.00">LISTEN</text>
</g>
<!-- SAY&#45;&gt;LISTEN -->
<g id="edge2" class="edge"><title>SAY&#45;&gt;LISTEN</title>
<path fill="none" stroke="black" d="M49.1731,-130.975C37.8724,-125.346 25.4555,-116.877 19,-105 12.0429,-92.2001 21.996,-80.8833 35.1758,-72.2676"/>
<polygon fill="black" stroke="black" points="37.2971,-75.0814 44.1574,-67.0075 33.7595,-69.041 37.2971,-75.0814"/>
<text text-anchor="middle" x="62.5" y="-93.8" font-family="Times,serif" font-size="14.00"> &#160;SAY_DONE &#160;</text>
</g>
<!-- LISTEN&#45;&gt;SAY -->
<g id="edge4" class="edge"><title>LISTEN&#45;&gt;SAY</title>
<path fill="none" stroke="black" d="M92.7398,-70.2815C102.402,-79.7362 110.99,-92.4335 106,-105 104.009,-110.014 100.922,-114.726 97.4185,-118.969"/>
<polygon fill="black" stroke="black" points="94.6361,-116.819 90.347,-126.507 99.7414,-121.608 94.6361,-116.819"/>
<text text-anchor="middle" x="173" y="-93.8" font-family="Times,serif" font-size="14.00"> &#160;VALID_RESPONSE &#160;</text>
</g>
<!-- LISTEN&#45;&gt;LISTEN -->
<g id="edge5" class="edge"><title>LISTEN:s&#45;&gt;LISTEN:s</title>
<path fill="none" stroke="black" d="M73,-36C82,-29 82,-15 73,-15 66.9531,-15 64.969,-21.3198 67.0476,-27.5903"/>
<polygon fill="black" stroke="black" points="64.3659,-29.8597 73,-36 70.0795,-25.8156 64.3659,-29.8597"/>
<text text-anchor="middle" x="73" y="-3.8" font-family="Times,serif" font-size="14.00"> &#160;INVALID_RESPONSE &#160;</text>
</g>
<!-- LISTEN&#45;&gt;LISTEN -->
<g id="edge6" class="edge"><title>LISTEN&#45;&gt;LISTEN</title>
<path fill="none" stroke="black" d="M109.841,-61.875C122.122,-61.875 131.946,-59.25 131.946,-54 131.946,-50.3086 127.089,-47.9149 119.937,-46.8191"/>
<polygon fill="black" stroke="black" points="120.058,-43.3192 109.841,-46.125 119.578,-50.3028 120.058,-43.3192"/>
<text text-anchor="middle" x="195.446" y="-50.3" font-family="Times,serif" font-size="14.00"> &#160;DETECTED_FACE &#160;</text>
</g>
</g>
</svg>
