<?xml version="1.0" encoding="UTF-8" standalone="no"?>
<!DOCTYPE svg PUBLIC "-//W3C//DTD SVG 1.1//EN"
 "http://www.w3.org/Graphics/SVG/1.1/DTD/svg11.dtd">
<!-- Generated by graphviz version 2.38.0 (20140413.2041)
 -->
<!-- Title: %3 Pages: 1 -->
<svg width="658pt" height="254pt"
 viewBox="0.00 0.00 658.39 254.00" xmlns="http://www.w3.org/2000/svg" xmlns:xlink="http://www.w3.org/1999/xlink">
<g id="graph0" class="graph" transform="scale(1 1) rotate(0) translate(4 250)">
<title>%3</title>
<polygon fill="white" stroke="none" points="-4,4 -4,-250 654.393,-250 654.393,4 -4,4"/>
<!-- PEND -->
<g id="node1" class="node"><title>PEND</title>
<ellipse fill="none" stroke="black" cx="242.447" cy="-228" rx="33.5952" ry="18"/>
<text text-anchor="middle" x="242.447" y="-224.3" font-family="Times,serif" font-size="14.00">PEND</text>
</g>
<!-- SAY -->
<g id="node2" class="node"><title>SAY</title>
<ellipse fill="none" stroke="black" cx="243.447" cy="-141" rx="28.6953" ry="18"/>
<text text-anchor="middle" x="243.447" y="-137.3" font-family="Times,serif" font-size="14.00">SAY</text>
</g>
<!-- PEND&#45;&gt;SAY -->
<g id="edge1" class="edge"><title>PEND&#45;&gt;SAY</title>
<path fill="none" stroke="black" d="M221.226,-213.742C208.993,-204.283 197.169,-190.835 203.447,-177 206.199,-170.934 210.58,-165.506 215.452,-160.839"/>
<polygon fill="black" stroke="black" points="217.982,-163.283 223.349,-154.148 213.457,-157.942 217.982,-163.283"/>
<text text-anchor="middle" x="232.447" y="-180.8" font-family="Times,serif" font-size="14.00"> &#160;START &#160;</text>
</g>
<!-- SAY&#45;&gt;PEND -->
<g id="edge3" class="edge"><title>SAY&#45;&gt;PEND</title>
<path fill="none" stroke="black" d="M254.381,-157.966C259.711,-167.663 264.399,-180.375 261.447,-192 260.63,-195.217 259.452,-198.458 258.076,-201.6"/>
<polygon fill="black" stroke="black" points="254.908,-200.11 253.521,-210.613 261.155,-203.267 254.908,-200.11"/>
<text text-anchor="middle" x="308.447" y="-180.8" font-family="Times,serif" font-size="14.00"> &#160;QUIZ_DONE &#160;</text>
</g>
<!-- LISTEN -->
<g id="node3" class="node"><title>LISTEN</title>
<ellipse fill="none" stroke="black" cx="464.447" cy="-54" rx="40.8928" ry="18"/>
<text text-anchor="middle" x="464.447" y="-50.3" font-family="Times,serif" font-size="14.00">LISTEN</text>
</g>
<!-- SAY&#45;&gt;LISTEN -->
<g id="edge2" class="edge"><title>SAY&#45;&gt;LISTEN</title>
<path fill="none" stroke="black" d="M271.845,-138.267C320.328,-134.787 416.365,-125.46 442.447,-105 449.741,-99.2783 454.672,-90.6361 457.982,-82.138"/>
<polygon fill="black" stroke="black" points="461.381,-83.0044 461.166,-72.4118 454.728,-80.8263 461.381,-83.0044"/>
<text text-anchor="middle" x="496.947" y="-93.8" font-family="Times,serif" font-size="14.00"> &#160;SAY_DONE &#160;</text>
</g>
<!-- WAIT -->
<g id="node4" class="node"><title>WAIT</title>
<ellipse fill="none" stroke="black" cx="34.4469" cy="-54" rx="34.394" ry="18"/>
<text text-anchor="middle" x="34.4469" y="-50.3" font-family="Times,serif" font-size="14.00">WAIT</text>
</g>
<!-- SAY&#45;&gt;WAIT -->
<g id="edge4" class="edge"><title>SAY&#45;&gt;WAIT</title>
<path fill="none" stroke="black" d="M222.173,-128.898C209.607,-122.209 193.466,-113.388 179.447,-105 168.974,-98.7341 167.547,-95.0724 156.447,-90 130.669,-78.2199 99.9959,-69.4417 75.8548,-63.6228"/>
<polygon fill="black" stroke="black" points="76.4755,-60.1737 65.9418,-61.31 74.885,-66.9906 76.4755,-60.1737"/>
<text text-anchor="middle" x="233.447" y="-93.8" font-family="Times,serif" font-size="14.00"> &#160;LOST_PERSON &#160;</text>
</g>
<!-- LISTEN&#45;&gt;PEND -->
<g id="edge6" class="edge"><title>LISTEN&#45;&gt;PEND</title>
<path fill="none" stroke="black" d="M500.482,-62.8034C527.504,-70.4875 557.723,-84.1339 544.447,-105 488.218,-193.377 355.238,-217.734 286.022,-224.446"/>
<polygon fill="black" stroke="black" points="285.537,-220.975 275.886,-225.347 286.156,-227.948 285.537,-220.975"/>
<text text-anchor="middle" x="576.447" y="-137.3" font-family="Times,serif" font-size="14.00"> &#160;TIMED_OUT &#160;</text>
</g>
<!-- LISTEN&#45;&gt;SAY -->
<g id="edge5" class="edge"><title>LISTEN:nw&#45;&gt;SAY</title>
<path fill="none" stroke="black" d="M447.447,-72C425.111,-94.3358 335.554,-77.7308 306.447,-90 306.157,-90.1224 286.156,-106.01 268.77,-119.841"/>
<polygon fill="black" stroke="black" points="266.188,-117.422 260.542,-126.388 270.547,-122.9 266.188,-117.422"/>
<text text-anchor="middle" x="372.447" y="-93.8" font-family="Times,serif" font-size="14.00"> &#160;VALID_RESPONSE &#160;</text>
</g>
<!-- LISTEN&#45;&gt;LISTEN -->
<g id="edge7" class="edge"><title>LISTEN:s&#45;&gt;LISTEN:s</title>
<path fill="none" stroke="black" d="M464.447,-36C473.447,-29 473.447,-15 464.447,-15 458.4,-15 456.416,-21.3198 458.495,-27.5903"/>
<polygon fill="black" stroke="black" points="455.813,-29.8597 464.447,-36 461.526,-25.8156 455.813,-29.8597"/>
<text text-anchor="middle" x="464.447" y="-3.8" font-family="Times,serif" font-size="14.00"> &#160;INVALID_RESPONSE &#160;</text>
</g>
<!-- LISTEN&#45;&gt;LISTEN -->
<g id="edge8" class="edge"><title>LISTEN&#45;&gt;LISTEN</title>
<path fill="none" stroke="black" d="M501.288,-61.875C513.569,-61.875 523.393,-59.25 523.393,-54 523.393,-50.3086 518.536,-47.9149 511.384,-46.8191"/>
<polygon fill="black" stroke="black" points="511.505,-43.3192 501.288,-46.125 511.025,-50.3028 511.505,-43.3192"/>
<text text-anchor="middle" x="586.893" y="-50.3" font-family="Times,serif" font-size="14.00"> &#160;DETECTED_FACE &#160;</text>
</g>
<!-- WAIT&#45;&gt;PEND -->
<g id="edge10" class="edge"><title>WAIT&#45;&gt;PEND</title>
<path fill="none" stroke="black" d="M24.6595,-71.6009C20.0375,-81.7589 16.6665,-94.7315 22.4469,-105 59.9059,-171.543 148.82,-204.099 201.429,-218.054"/>
<polygon fill="black" stroke="black" points="200.887,-221.527 211.441,-220.601 202.613,-214.743 200.887,-221.527"/>
<text text-anchor="middle" x="116.447" y="-137.3" font-family="Times,serif" font-size="14.00"> &#160;TIMED_OUT &#160;</text>
</g>
<!-- WAIT&#45;&gt;SAY -->
<g id="edge9" class="edge"><title>WAIT&#45;&gt;SAY</title>
<path fill="none" stroke="black" d="M28.0437,-71.7147C25.1204,-82.4341 23.7955,-95.9818 31.4469,-105 37.0391,-111.591 145.689,-126.988 205.216,-134.983"/>
<polygon fill="black" stroke="black" points="204.999,-138.485 215.374,-136.339 205.926,-131.546 204.999,-138.485"/>
<text text-anchor="middle" x="91.9469" y="-93.8" font-family="Times,serif" font-size="14.00"> &#160;FOUND_PERSON &#160;</text>
</g>
</g>
</svg>
